<?xml version="1.0" encoding="utf-8"?>
<!-- Generator: Adobe Illustrator 23.0.1, SVG Export Plug-In . SVG Version: 6.00 Build 0)  -->
<svg version="1.1" id="Calque_1" xmlns="http://www.w3.org/2000/svg" xmlns:xlink="http://www.w3.org/1999/xlink" x="0px" y="0px"
	 viewBox="0 0 200 200" style="enable-background:new 0 0 200 200;" xml:space="preserve">
<style type="text/css">
	.st0{fill:#FFFFFF;}
</style>
<path class="st0" d="M159.4,94.2c-23.9-15.5-45.7-0.5-52.9,10c-1.4,2.6-0.8,5,1.2,6.5c24.6,15.4,46.4,0.3,52.9-10
	C161.4,99.6,162.3,96.4,159.4,94.2L159.4,94.2z M117.3,105.6c6.6-6.2,18.7-12.7,32.7-6.2C144.6,104.8,133.3,111.8,117.3,105.6
	L117.3,105.6z"/>
<path class="st0" d="M136.9,127.2c-23.9-15.5-45.7-0.5-52.9,10c-1.4,2.6-0.8,5,1.2,6.5c24.6,15.4,46.4,0.3,52.9-10
	C138.9,132.5,139.8,129.3,136.9,127.2L136.9,127.2z M94.7,138.6c6.6-6.2,18.7-12.7,32.7-6.2C122.1,137.9,110.7,144.8,94.7,138.6
	L94.7,138.6z"/>
<path class="st0" d="M71.8,134.9c2.6,1.4,5,0.8,6.5-1.2c15.4-24.7,0.3-46.4-10-52.9c-1.1-0.7-4.3-1.7-6.5,1.1
	C46.3,105.9,61.3,127.7,71.8,134.9L71.8,134.9z M66.9,91.5c5.5,5.4,12.5,16.8,6.2,32.7C67,117.7,60.5,105.6,66.9,91.5L66.9,91.5z"/>
<path class="st0" d="M94.3,102c2.6,1.4,5,0.9,6.5-1.2c15.4-24.6,0.3-46.4-10-52.9c-1.1-0.6-4.3-1.7-6.5,1.2
	C68.8,73,83.8,94.8,94.3,102L94.3,102z M89.4,58.6c5.6,5.3,12.5,16.7,6.2,32.7C89.5,84.7,83,72.7,89.4,58.6L89.4,58.6z"/>
<path class="st0" d="M119.1,85.6c25.6-6.8,26.7-28.6,25.1-36.7c-0.5-2.6-2.8-4.2-5.4-3.7c-8.6,1-28.7,12.1-25.1,36.7
	C114.5,84.5,116.2,85.9,119.1,85.6L119.1,85.6z M135.6,55.6c-0.2,4.2-1.8,13.7-13.2,19.3C122.9,63.2,131.9,57.3,135.6,55.6
	L135.6,55.6z"/>
<path class="st0" d="M79.6,136.2c-2.3-1.2-5.1-0.2-6.2,1.8c-0.5,1.2-5.8,10-14.2,5.6c-2.3-1.2-5.1-0.5-6.3,1.8
	c-1.1,2.3-0.5,5.1,1.8,6.2c14.3,7.7,23.9-4.2,26.7-9.3C82.7,140.2,81.7,137.4,79.6,136.2L79.6,136.2z"/>
</svg>
