<?xml version="1.0" encoding="utf-8"?>
<!-- Generator: Adobe Illustrator 23.0.1, SVG Export Plug-In . SVG Version: 6.00 Build 0)  -->
<svg version="1.1" id="Calque_1" xmlns="http://www.w3.org/2000/svg" xmlns:xlink="http://www.w3.org/1999/xlink" x="0px" y="0px"
	 viewBox="0 0 200 200" style="enable-background:new 0 0 200 200;" xml:space="preserve">
<style type="text/css">
	.st0{fill:#3B85BE;stroke:#010202;stroke-width:6.000000e-02;stroke-linecap:round;stroke-linejoin:bevel;stroke-miterlimit:10;}
	.st1{fill:#FFFFFF;}
	.st2{fill:#FFFFFF;stroke:#FFFFFF;stroke-width:0.96;}
	.st3{fill:#3B85BE;stroke:#010202;stroke-width:6.000000e-02;stroke-linecap:round;stroke-linejoin:bevel;}
	.st4{fill:none;stroke:#FFFFFF;stroke-width:6;}
	.st5{fill:none;stroke:#FFFDFD;stroke-width:6;}
</style>
<path class="st0" d="M-245.3-321.7c0,41-33.2,74.2-74.2,74.2c-41,0-74.2-33.2-74.2-74.2c0-41,33.2-74.2,74.2-74.2
	C-278.5-395.9-245.3-362.8-245.3-321.7L-245.3-321.7z"/>
<path class="st1" d="M-281.3-361.7c-8.8-2.4-18.7,0-26,6.3c-0.4,0.4-1,1.2-20,17.6l-1.5-3.6c-0.4-0.8-1.1-1.3-2-1.4
	c-0.9-0.1-1.7,0.4-2.2,1.1l-8.2,12.2c-3.6,5.3-8.1,10.3-12.5,14.9c-0.5,0.6-1.1,1.2-1.6,1.8c-7,7.5-6.8,19.3,0.6,26.6
	c7,6.8,18.2,6.9,25.9,0.8c0.4-0.2,0.4-0.2,2.3-2c4.7-4.4,9.7-8.9,15-12.5l12.2-8.2c0.7-0.5,1.1-1.3,1-2.2c-0.1-0.8-0.6-1.6-1.4-2
	l-3.5-1.5c18.7-21.7,16.5-18.7,17.6-20c6.2-7.1,8.5-17.3,6-26.3C-279.8-360.8-280.4-361.4-281.3-361.7L-281.3-361.7z M-285.3-343.2
	l-4.6-4.7l6.5-6.5C-283.2-350.6-283.9-346.7-285.3-343.2L-285.3-343.2z M-286.9-357.8l-6.5,6.5l-4.5-4.5
	C-294.3-357.3-290.5-358-286.9-357.8L-286.9-357.8z M-304.1-351.8c0.6-0.6,1.3-1.1,2-1.6l5.5,5.5l-6.2,6.2l-5.9-5.9
	C-305.5-350.5-304.4-351.5-304.1-351.8L-304.1-351.8z M-302.3-322l-6.8-6.8l6.2-6.2l6.4,6.4C-298.1-326.8-300-324.6-302.3-322
	L-302.3-322z M-312.5-332.1l-6.5-6.5c2.6-2.3,4.8-4.2,6.6-5.8l6.1,6.1L-312.5-332.1z M-322.7-335.5l6.8,6.8l-5.9,5.9
	c-1.4-5.6-3.4-10-3.5-10.3C-324.4-334-323.5-334.8-322.7-335.5L-322.7-335.5z M-351.2-289.6c-5.6-5.5-5.8-14.2-0.5-20
	c0.5-0.6,1.1-1.2,1.7-1.7c4.5-4.9,9.1-9.9,12.9-15.6l5.7-8.5c2.6,6,4.4,9.9,5.8,16.7c1.1,5.9,1.3,11.8,0.6,17.6
	c-0.5,4.4-2.6,8.4-5.8,11.4C-336.8-284.4-346-284.3-351.2-289.6L-351.2-289.6z M-314.1-303.8c-2.3,1.5-4.4,3.1-6.5,4.9
	c0.7-3.3,1-9.7,0.3-15.9c7.1,1.6,11.2,3.9,14.8,5.3L-314.1-303.8z M-318.5-319.3l6.1-6l7,7c-0.7,0.9-1.5,1.7-2.3,2.7
	C-308.3-315.9-312.5-317.9-318.5-319.3L-318.5-319.3z M-293.4-332.2l-6.1-6.1l6.2-6.2l5.7,5.7C-289-336.9-288.8-337.3-293.4-332.2
	L-293.4-332.2z M-293.4-332.2L-293.4-332.2z"/>
<path class="st0" d="M149.4-296.8c0,41-33.2,74.2-74.2,74.2c-41,0-74.2-33.2-74.2-74.2S34.2-371,75.2-371
	C116.2-371,149.4-337.7,149.4-296.8L149.4-296.8z"/>
<path class="st2" d="M112-296.8c2.6-1.2,4.6-3.1,6-4.6c0.8-0.9,1.1-2,1-3.2c-0.2-1.1-0.9-2-1.9-2.6c-1.9-1-4.4-2-7.3-2.3
	c2-2,3.3-4.4,4.1-6.4c0.5-1.1,0.4-2.2-0.2-3.2c-0.6-1-1.6-1.7-2.7-1.8c-2.1-0.3-4.8-0.4-7.6,0.3c1.1-2.6,1.6-5.3,1.6-7.4
	c0.1-1.1-0.4-2.2-1.3-2.9c-0.8-0.7-2-1-3.1-0.8c-2,0.5-4.6,1.3-7,2.9c0.2-2.8-0.4-5.5-1-7.4c-0.4-1.1-1.1-2-2.2-2.4
	c-1.1-0.4-2.3-0.2-3.2,0.4c-1.7,1.1-3.9,2.8-5.6,5.2c-0.8-2.8-2.2-5.1-3.5-6.7c-0.7-1-1.7-1.4-2.9-1.4c-1.2,0-2.2,0.5-2.9,1.4
	c-1.3,1.6-2.7,4-3.5,6.7c-1.7-2.3-3.8-4-5.6-5.2c-1-0.6-2.2-0.7-3.2-0.4c-1.1,0.4-1.9,1.3-2.2,2.4c-0.7,2-1.2,4.6-1,7.4
	c-2.3-1.6-5-2.4-7-2.9c-1.1-0.2-2.3,0.1-3.1,0.8c-0.9,0.7-1.4,1.8-1.3,3c0.1,2,0.5,4.7,1.6,7.3c-2.7-0.7-5.5-0.6-7.5-0.3
	c-1.1,0.1-2.2,0.8-2.8,1.8c-0.5,1-0.6,2.2-0.2,3.2c0.8,1.9,2.1,4.3,4.1,6.4c-2.8,0.3-5.3,1.3-7.2,2.3c-1,0.5-1.7,1.5-1.9,2.6
	c-0.2,1.1,0.1,2.3,0.9,3.1c1.4,1.6,3.4,3.4,6,4.6c-2.6,1.3-4.6,3.1-6,4.6c-0.8,0.8-1.1,2-0.9,3.1c0.2,1.1,0.9,2,1.9,2.6
	c1.9,1,4.4,2,7.2,2.3c-2,2-3.3,4.4-4.1,6.4c-0.4,1.1-0.4,2.3,0.2,3.2c0.6,1,1.6,1.7,2.8,1.8c0.9,0.1,1.9,0.2,3,0.2
	c1.4,0,2.9-0.2,4.5-0.5c-1.1,2.6-1.6,5.3-1.6,7.3c-0.1,1.2,0.4,2.3,1.3,3c0.7,0.5,1.5,0.8,2.3,0.8c0.2,0,0.5,0,0.8-0.1
	c2-0.5,4.7-1.3,7-2.9c-0.2,2.8,0.3,5.5,1,7.5c0.4,1.1,1.1,1.9,2.2,2.3c0.4,0.1,0.8,0.2,1.3,0.2c0.7,0,1.4-0.2,2-0.5
	c1.8-1.1,3.9-2.8,5.6-5.1c0.8,2.7,2.2,5,3.5,6.7c0.7,1,1.7,1.4,2.9,1.4c1.1,0,2.2-0.5,2.9-1.4c1.3-1.6,2.7-4,3.5-6.7
	c1.7,2.3,3.8,4,5.6,5.1c0.6,0.4,1.3,0.5,2,0.5c0.4,0,0.8-0.1,1.3-0.2c1.1-0.4,1.9-1.3,2.2-2.4c0.7-2,1.2-4.6,1-7.4
	c2.3,1.6,5,2.4,7,2.9c0.2,0.1,0.5,0.1,0.8,0.1c0.8,0,1.7-0.3,2.3-0.8c0.9-0.7,1.4-1.8,1.3-3c-0.1-2-0.5-4.7-1.6-7.3
	c1.6,0.4,3.1,0.5,4.5,0.5c1.1,0,2.2-0.1,3.1-0.2c1.1-0.1,2.1-0.8,2.7-1.8c0.5-1,0.7-2.2,0.2-3.2c-0.8-1.9-2.1-4.3-4.1-6.4
	c2.8-0.3,5.4-1.3,7.3-2.3c1-0.5,1.7-1.5,1.9-2.6c0.2-1.1-0.2-2.3-1-3.1C116.6-293.7,114.6-295.6,112-296.8L112-296.8z M115.4-303.9
	C115.4-303.9,115.4-303.9,115.4-303.9c0.1,0.1,0.1,0.1,0.1,0.1c-1.4,1.5-4.2,4.1-7.7,4.7c-2.9,0.5-5.9-0.5-7.9-1.3
	c-0.1-0.3-0.1-0.5-0.1-0.7l0,0l0,0l0,0l0,0l-0.1-0.2c0-0.1,0-0.1,0-0.2v-0.1c0,0,0,0,0-0.1c-0.1-0.1-0.1-0.1-0.1-0.2l0,0
	c1.5-1.5,4-3.5,7-4C110-306.4,113.6-304.9,115.4-303.9L115.4-303.9z M110.5-317.2C110.5-317.2,110.6-317.2,110.5-317.2
	c0.1,0.1,0.1,0.1,0.1,0.1c-0.8,1.9-2.5,5.3-5.6,7.1c-2.6,1.4-5.6,1.6-7.9,1.4c0-0.1-0.1-0.1-0.1-0.2c-0.1,0-0.1,0-0.1,0l0,0l0,0l0,0
	c-0.2-0.4-0.4-0.7-0.5-1c1-2.2,2.6-4.6,5.2-6.1C104.7-317.7,108.5-317.5,110.5-317.2L110.5-317.2z M93.5-323.8
	c2.3-2.8,5.9-3.9,7.9-4.3l0,0h0.1c0.1,0.1,0.1,0.1,0.1,0.1c-0.1,2-0.6,5.8-2.9,8.5c-1.9,2.3-4.9,3.5-6.9,4.1
	c-0.2-0.2-0.4-0.3-0.5-0.5c-0.1-0.1-0.2-0.2-0.3-0.2c-0.1-0.1-0.2-0.1-0.2-0.2C90.8-318.4,91.5-321.4,93.5-323.8L93.5-323.8z
	 M83.1-328.4c1.3-3.4,4.3-5.7,6-6.8h0.1c0.1,0,0.1,0.1,0.1,0.1c0.6,2,1.4,5.7,0.2,9.1c-1,2.8-3.4,4.9-5.1,6.2
	c-0.1-0.1-0.1-0.1-0.2-0.1l0,0l0,0l0,0c-0.1-0.1-0.2-0.1-0.4-0.1v-0.1h-0.1c-0.1,0-0.2-0.1-0.4-0.1l0,0c-0.1,0-0.1-0.1-0.2-0.1
	c-0.1,0-0.1,0-0.1-0.1C82.5-322.6,82.1-325.6,83.1-328.4L83.1-328.4z M75.1-337.6c0,0,0.1-0.1,0.1-0.1l0.1,0.1
	c1.3,1.6,3.3,4.8,3.3,8.4c0,3-1.5,5.8-2.7,7.6c-0.5-0.1-0.9-0.1-1.4,0c-1.2-1.7-2.7-4.6-2.7-7.6C71.8-332.8,73.9-335.9,75.1-337.6
	L75.1-337.6z M61.2-335.1C61.2-335.1,61.2-335.2,61.2-335.1L61.2-335.1c0.1-0.1,0.1-0.1,0.1-0.1c1.7,1.1,4.7,3.4,6,6.8
	c1,2.8,0.6,6,0.1,8c-0.1,0.1-0.2,0.1-0.2,0.1c0,0,0,0-0.1,0c-0.1,0.1-0.2,0.1-0.3,0.1c-0.1,0-0.1,0-0.1,0l0,0l0,0
	c-0.2,0.1-0.4,0.2-0.7,0.2c0,0,0,0,0,0.1c-1.7-1.3-4.1-3.4-5.1-6.2C59.7-329.4,60.5-333.1,61.2-335.1L61.2-335.1z M48.9-328.1
	L48.9-328.1c0.1,0,0.1,0,0.1,0c1.9,0.4,5.6,1.6,7.9,4.3c1.9,2.3,2.6,5.4,2.8,7.5c-0.1,0.1-0.1,0.1-0.2,0.2l0,0l0,0c0,0,0,0-0.1,0
	c-0.1,0.1-0.1,0.1-0.2,0.2l-0.1,0.1l0,0l0,0c0,0.1-0.1,0.1-0.1,0.1c-0.2,0.1-0.3,0.2-0.5,0.4c-2-0.5-4.9-1.7-6.9-4.1
	c-2.3-2.7-2.8-6.5-2.9-8.5C48.9-328,48.9-328,48.9-328.1L48.9-328.1z M39.8-317.1C39.8-317.1,39.8-317.2,39.8-317.1
	c0-0.1,0.1-0.1,0.1-0.1c0.7-0.1,1.6-0.2,2.5-0.2c2,0,4.4,0.3,6.4,1.5c2.5,1.4,4.2,4,5.2,6.1c-0.1,0-0.1,0.1-0.1,0.1l0,0l0,0l0,0l0,0
	c0,0.1-0.1,0.1-0.1,0.1c-0.2,0.3-0.4,0.7-0.5,1c-2.1,0.2-5.3,0.1-7.9-1.4C42.3-311.8,40.6-315.2,39.8-317.1L39.8-317.1z M35-303.8
	C35-303.8,35-303.8,35-303.8c0-0.1,0.1-0.1,0.1-0.2c1.5-0.8,4.2-1.9,7.1-1.9c0.5,0,1.1,0.1,1.7,0.2c3,0.5,5.5,2.5,7,3.9
	c0,0.1,0,0.1,0,0.1c0,0.2-0.1,0.4-0.1,0.7c0,0.2-0.1,0.5-0.1,0.7c-2.1,1-5,1.8-7.9,1.3C39.2-299.7,36.3-302.3,35-303.8L35-303.8z
	 M35-289.6c0-0.1-0.1-0.1-0.1-0.1s0-0.1,0-0.1c1.4-1.5,4.2-4.1,7.7-4.7c0.6-0.1,1.1-0.1,1.7-0.1c2.3,0,4.4,0.7,6.1,1.4v0.1
	c0.1,0.2,0.1,0.4,0.1,0.7l0,0c0.1,0.2,0.1,0.4,0.1,0.6c0,0,0,0.1,0,0.1c-1.5,1.4-4,3.4-7,3.9C40.4-287.2,36.8-288.7,35-289.6
	L35-289.6z M39.9-276.3C39.9-276.3,39.8-276.3,39.9-276.3c-0.1-0.1-0.1-0.1-0.1-0.1c0.8-1.9,2.5-5.3,5.6-7.1c2-1.1,4.3-1.5,6.4-1.5
	c0.5,0,1,0,1.5,0.1c0,0.1,0.1,0.2,0.1,0.2l0,0l0,0l0,0l0,0c0.1,0.2,0.3,0.5,0.4,0.7l0,0l0,0l0,0c0.1,0.1,0.1,0.2,0.1,0.2
	c-0.9,1.9-2.5,4.6-5.2,6.1C45.7-275.8,41.9-276,39.9-276.3L39.9-276.3z M57-269.8c-2.3,2.8-6,3.9-8,4.3c0,0,0,0-0.1,0
	c-0.1-0.1-0.1-0.1-0.1-0.1c0.1-2,0.6-5.8,2.9-8.5c2-2.3,4.9-3.5,6.9-4.1c0.2,0.2,0.4,0.3,0.5,0.5c0.1,0.1,0.2,0.1,0.3,0.2l0,0l0,0
	l0,0c0.1,0,0.1,0.1,0.1,0.1c0.1,0.1,0.1,0.1,0.1,0.1C59.5-274.9,58.8-272,57-269.8L57-269.8z M67.3-265.1c-1.3,3.4-4.3,5.7-6,6.8
	h-0.1c-0.1,0-0.1-0.1-0.1-0.1c-0.7-2-1.4-5.7-0.2-9.1c1-2.8,3.4-4.9,5.1-6.1c0.1,0,0.2,0.1,0.2,0.1l0,0l0,0l0,0
	c0.4,0.2,0.7,0.3,1.1,0.4C67.9-271.1,68.3-268,67.3-265.1L67.3-265.1z M75.3-256L75.3-256c-0.1,0.1-0.2,0-0.2,0
	c-1.2-1.6-3.3-4.8-3.3-8.4c0-3,1.5-5.8,2.7-7.6c0.2,0.1,0.5,0.1,0.7,0.1c0.1,0,0.2,0,0.4,0l0.2-0.1c1.2,1.7,2.7,4.6,2.7,7.6
	C78.6-260.8,76.5-257.6,75.3-256L75.3-256z M89.3-258.4c0,0-0.1,0.1-0.1,0.1h-0.1c-1.7-1.1-4.7-3.4-6-6.8c-1-2.8-0.5-6-0.1-8
	c0.2-0.1,0.4-0.1,0.5-0.2l0,0l0,0c0,0,0,0,0-0.1c0.1,0,0.1,0,0.2-0.1c0.2-0.1,0.4-0.1,0.6-0.2c1.7,1.2,4.1,3.3,5.1,6.1
	C90.7-264.1,89.9-260.4,89.3-258.4L89.3-258.4z M90-281.5C90-281.5,90-281.4,90-281.5c-0.1,0.1-0.2,0.2-0.3,0.2
	c0,0.1-0.1,0.1-0.1,0.1c-0.1,0.1-0.1,0.1-0.1,0.2c-0.1,0-0.1,0-0.1,0c-0.1,0.1-0.2,0.2-0.2,0.2c-0.2,0.1-0.4,0.3-0.5,0.4h-0.1
	c0,0.1-0.1,0.1-0.1,0.1c-0.1,0.1-0.1,0.1-0.1,0.1c-0.1,0.1-0.2,0.2-0.4,0.3c-0.1,0.1-0.2,0.2-0.4,0.3c-1.3,0.9-2.6,1.7-3.9,2.3
	c-0.1,0.1-0.2,0.1-0.4,0.1l0,0l0,0l0,0c-0.1,0.1-0.2,0.1-0.3,0.1c0,0,0,0.1-0.1,0.1c-0.2,0.1-0.4,0.1-0.6,0.2c0,0,0,0-0.1,0
	c0,0-0.1,0-0.1,0.1c-0.3,0.1-0.7,0.2-0.9,0.3c-0.1,0-0.2,0.1-0.3,0.1h-0.1v0.1c-1.4,0.4-2.9,0.7-4.4,0.7c-0.1,0.1-0.2,0.1-0.4,0.1
	l0,0c-0.1,0-0.2,0-0.3,0l0,0l0,0l0,0l0,0c-0.1,0-0.1,0-0.2,0h-0.2c-0.1,0-0.2,0-0.2,0c-0.3,0-0.5,0-0.8,0c-0.1,0-0.3,0-0.5,0l0,0
	c-0.1,0-0.2,0-0.3-0.1c-0.1,0-0.1,0-0.1,0c-1.5-0.1-3-0.4-4.4-0.7l0,0c-0.1,0-0.1-0.1-0.1-0.1h-0.1c-0.1,0-0.2-0.1-0.2-0.1
	c-0.5-0.2-1-0.3-1.4-0.5c-0.1-0.1-0.2-0.1-0.3-0.1c-0.2-0.1-0.5-0.2-0.7-0.3c-1.3-0.6-2.6-1.4-3.9-2.3c-0.1-0.1-0.2-0.1-0.2-0.2l0,0
	l-0.1-0.1c0,0-0.1-0.1-0.1-0.1c0-0.1,0-0.1-0.1-0.1c-0.1-0.1-0.2-0.1-0.3-0.2l0,0c-0.1-0.1-0.1-0.1-0.1-0.1
	c-0.1-0.1-0.2-0.1-0.3-0.2l0,0c-0.2-0.1-0.4-0.3-0.5-0.5c-0.2-0.1-0.4-0.3-0.5-0.5l0,0c0,0,0-0.1-0.1-0.1c-1-1-2-2.2-2.8-3.4v-0.1
	c-0.1-0.1-0.1-0.2-0.2-0.3h-0.1l0,0c-0.1-0.1-0.1-0.2-0.2-0.3l0,0c-0.1-0.1-0.1-0.2-0.2-0.3l0,0c-0.1-0.2-0.2-0.4-0.4-0.6v-0.1
	c-0.2-0.3-0.4-0.6-0.5-1l0,0c-0.7-1.3-1.1-2.8-1.5-4.2l-0.1-0.4c0-0.1-0.1-0.2-0.1-0.3c-0.1-0.7-0.2-1.4-0.4-2.2c0-0.1,0-0.1,0-0.1
	c-0.1-0.7-0.1-1.4-0.1-2.2c0-0.8,0.1-1.5,0.1-2.2c0,0,0,0,0-0.1c0.1-0.1,0.1-0.2,0.1-0.4c0.1-0.4,0.1-0.7,0.2-1c0-0.1,0-0.1,0-0.1
	c0-0.2,0.1-0.5,0.1-0.7v-0.1c0.1-0.2,0.1-0.5,0.2-0.7l0,0c0.4-1.4,0.8-2.9,1.5-4.2l0,0c0.1-0.1,0.1-0.1,0.1-0.1
	c0.1-0.2,0.2-0.4,0.3-0.5c0.1-0.1,0.1-0.2,0.2-0.3c0.1-0.2,0.2-0.4,0.4-0.6c0-0.1,0-0.1,0-0.1l0,0c0-0.1,0.1-0.1,0.1-0.1
	c0.2-0.3,0.4-0.6,0.5-0.8l0,0c0.8-1.3,1.8-2.4,2.9-3.5l0,0c0.4-0.3,0.7-0.7,1.1-1l0,0l0.1-0.1c0.1,0,0.1-0.1,0.1-0.1
	c0.1-0.1,0.1-0.1,0.2-0.1l0,0c0.1-0.1,0.2-0.1,0.2-0.2c0-0.1,0.1-0.1,0.1-0.1l0,0c0.2-0.1,0.4-0.3,0.5-0.4c0.1,0,0.1,0,0.1,0v-0.1
	c1.2-0.8,2.5-1.6,3.8-2.2c0,0,0,0,0.1,0l0,0c0.2-0.1,0.4-0.2,0.5-0.2c0,0,0,0,0.1,0l0,0c0.1-0.1,0.1-0.1,0.2-0.1l0,0v-0.1
	c0.2-0.1,0.4-0.1,0.6-0.2c0.1-0.1,0.2-0.1,0.3-0.1l0,0c0.2-0.1,0.4-0.1,0.7-0.2c0.1,0,0.2-0.1,0.4-0.1c1.4-0.4,2.9-0.7,4.4-0.8l0,0
	c0.2-0.1,0.4-0.1,0.7-0.1l0,0l0,0h0.1l0,0c0.2,0,0.5,0,0.8,0c0.2,0,0.5,0,0.7,0c0,0,0,0,0.1,0l0,0l0,0l0,0c0.2,0,0.4,0,0.7,0.1
	c0,0,0,0,0.1,0c1.4,0.1,2.9,0.4,4.3,0.7c0.1,0.1,0.1,0.1,0.1,0.1l0.4,0.1c0.2,0.1,0.5,0.2,0.7,0.2l0,0c0.1,0.1,0.2,0.1,0.4,0.1l0,0
	c0,0,0,0,0.1,0l0,0l0.3,0.1l0,0c0.1,0.1,0.2,0.1,0.3,0.1c0,0,0,0,0.1,0.1c0.2,0.1,0.4,0.2,0.7,0.2l0,0l0,0c1.3,0.6,2.6,1.4,3.8,2.3
	c0.1,0,0.1,0,0.1,0c0.1,0.1,0.2,0.1,0.3,0.2c0.1,0.1,0.1,0.1,0.2,0.2l0,0h0.1c0.1,0.1,0.2,0.2,0.2,0.2l0,0c0.1,0.1,0.2,0.2,0.3,0.2
	l0,0c0.2,0.1,0.4,0.3,0.5,0.5c0.2,0.2,0.4,0.4,0.5,0.5l0,0c0,0,0,0.1,0.1,0.1c1,1,2,2.2,2.8,3.4l0,0l0.1,0.1
	c0.1,0.1,0.1,0.1,0.1,0.1l0,0c0.3,0.4,0.6,0.9,0.8,1.4c0.1,0.1,0.1,0.2,0.2,0.3l0,0l0,0c0.1,0.2,0.2,0.4,0.4,0.7l0,0l0,0
	c0.7,1.3,1.1,2.8,1.5,4.2c0.1,0.2,0.1,0.5,0.2,0.7l0.1,0.4l0,0c0,0,0,0,0,0.1l0,0l0.1,0.3l0,0c0.1,0.2,0.1,0.5,0.1,0.7v0.1l0.1,0.3
	c0,0.1,0.1,0.2,0.1,0.4c0.1,0.8,0.1,1.5,0.1,2.3c0,0.8-0.1,1.5-0.1,2.3c-0.1,0.5-0.1,1-0.2,1.4c0,0.1,0,0.2-0.1,0.3c0,0,0,0,0,0.1
	l0,0v0.1l0,0c0,0.1-0.1,0.2-0.1,0.2c0,0.2-0.1,0.3-0.1,0.4c-0.1,0.1-0.1,0.2-0.1,0.4l0,0c-0.4,1.4-0.8,2.9-1.5,4.2
	c-0.1,0.2-0.2,0.4-0.4,0.7l0,0c-0.2,0.5-0.5,1-0.8,1.5c-0.1,0-0.1,0.1-0.1,0.1c0,0.1,0,0.1-0.1,0.1l-0.1,0.1c0,0,0,0.1-0.1,0.1
	C92-283.6,91.1-282.5,90-281.5L90-281.5z M101.4-265.4L101.4-265.4c-2-0.4-5.7-1.6-8-4.3c-2-2.3-2.6-5.4-2.8-7.5
	c0.1-0.1,0.1-0.1,0.1-0.1c0.1,0,0.1,0,0.1,0c0.1-0.1,0.1-0.1,0.2-0.1c0.2-0.2,0.3-0.3,0.5-0.5l0,0c0.1,0,0.1,0,0.1,0
	c0.1-0.1,0.1-0.1,0.2-0.2c2,0.5,5,1.7,6.9,4.1c2.3,2.7,2.8,6.5,2.9,8.5C101.5-265.6,101.5-265.5,101.4-265.4L101.4-265.4z
	 M110.6-276.4C110.6-276.4,110.6-276.4,110.6-276.4c0,0.1-0.1,0.1-0.1,0.1c-2,0.3-5.8,0.5-8.9-1.3c-2.5-1.4-4.2-4-5.2-6.1
	c0.2-0.4,0.5-0.8,0.7-1.2c2.1-0.2,5.3-0.1,7.9,1.4C108-281.7,109.8-278.3,110.6-276.4L110.6-276.4z M115.4-289.7
	c0,0.1-0.1,0.1-0.1,0.1c-1.8,0.9-5.3,2.4-8.8,1.7c-3-0.5-5.5-2.5-7-3.9c0-0.1,0-0.1,0-0.2c0.1-0.1,0.1-0.1,0.1-0.2l0,0l0,0l0,0
	c0-0.1,0-0.2,0.1-0.3v-0.1l0,0l0,0c0.1-0.2,0.1-0.5,0.1-0.7c1.9-0.9,4.9-1.9,7.9-1.4C111.2-293.8,114-291.2,115.4-289.7
	C115.4-289.7,115.4-289.7,115.4-289.7L115.4-289.7z"/>
<path class="st3" d="M288.1-304.8c0,41-33.2,74.2-74.2,74.2c-41,0-74.2-33.2-74.2-74.2c0-41,33.2-74.2,74.2-74.2
	C254.9-378.9,288.1-345.7,288.1-304.8L288.1-304.8z"/>
<path class="st1" d="M236.5-304.3c-0.1-1.3-1.1-2.4-2.5-2.5c-0.1,0-0.4,0-0.9,0c-0.2,0-0.3,0-0.5,0c4.1-5.7,4-13.4,3.9-14.3v-17.3
	c0-1.5-1.2-2.7-2.7-2.7c-1.4,0-2.6,1.2-2.6,2.7v14.7c-2.2,0.2-5.2,0.6-8,1.9c0.6-1.8,1-3.7,1-5.8c0-7.6-5.3-13.8-7.6-16v-16.2
	c0-1.4-1.1-2.6-2.6-2.6s-2.7,1.2-2.7,2.6v16.2c-2.2,2.2-7.5,8.5-7.5,16c0,2,0.4,4,1,5.8c-2.9-1.3-5.9-1.7-8-1.9v-14.7
	c0-1.5-1.2-2.7-2.7-2.7c-1.4,0-2.6,1.2-2.6,2.7v17.3c-0.1,1-0.2,8.6,3.9,14.3c-0.2,0-0.3,0-0.5,0c-0.5,0-0.8,0-0.9,0
	c-1.4,0.1-2.5,1.2-2.5,2.5c0,0.4-0.5,8.5,3.9,14.5c-0.2,0-0.3,0-0.5,0c-0.5,0-0.8,0-0.9,0c-1.4,0.1-2.5,1.1-2.5,2.5
	c0,0.4-0.5,10.3,5.5,16.3c4.5,4.5,11.1,5.3,14.5,5.5v19.6c0,1.5,1.2,2.7,2.7,2.7s2.6-1.2,2.6-2.7v-19.6c3.4-0.1,10-1,14.5-5.5
	c6-6,5.5-15.8,5.5-16.3c-0.1-1.4-1.1-2.4-2.5-2.5c-0.1,0-0.4,0-0.9,0c-0.2,0-0.3,0-0.5,0C237-295.8,236.5-303.9,236.5-304.3
	L236.5-304.3z M210-288c-2.6-0.2-6.8-1.1-9.5-3.8c-2.8-2.7-3.6-6.9-3.8-9.6c2.6,0.2,6.9,1.1,9.6,3.8C209-294.9,209.8-290.7,210-288
	L210-288z M221.5-297.6c2.7-2.8,6.9-3.6,9.6-3.8c-0.2,2.7-1.1,6.9-3.8,9.6c-2.7,2.8-6.9,3.6-9.6,3.8
	C217.9-290.7,218.7-294.9,221.5-297.6L221.5-297.6z M227.3-308.7c-2.7,2.7-6.9,3.5-9.5,3.8c0.2-2.7,1-6.9,3.8-9.6
	c2.7-2.8,6.9-3.5,9.6-3.8C230.9-315.7,230-311.5,227.3-308.7L227.3-308.7z M213.9-338.6c2,2.3,4.9,6.5,4.9,11c0,4.6-2.9,8.8-4.9,11
	c-2-2.3-4.9-6.5-4.9-11S211.9-336.3,213.9-338.6L213.9-338.6z M206.3-314.5c2.8,2.7,3.5,6.9,3.8,9.6c-2.6-0.2-6.8-1.1-9.5-3.8
	c-2.8-2.8-3.6-7-3.8-9.6C199.3-318.1,203.6-317.3,206.3-314.5L206.3-314.5z M200.5-274.8c-2.8-2.7-3.6-6.9-3.8-9.6
	c2.6,0.2,6.9,1.1,9.6,3.8c2.8,2.7,3.5,6.9,3.8,9.6C207.4-271.2,203.2-272.1,200.5-274.8L200.5-274.8z M227.3-274.8
	c-2.7,2.8-6.9,3.6-9.5,3.8c0.2-2.7,1-6.9,3.8-9.6c2.7-2.8,6.9-3.6,9.6-3.8C230.9-281.7,230-277.5,227.3-274.8L227.3-274.8z"/>
<path class="st3" d="M36.4-294.5c0,41-33.2,74.2-74.2,74.2c-41,0-74.2-33.2-74.2-74.2s33.2-74.2,74.2-74.2
	C3.2-368.8,36.4-335.5,36.4-294.5L36.4-294.5z"/>
<path class="st1" d="M6.8-298.9c-17.9-11.6-34.3-0.4-39.7,7.5c-1.1,1.9-0.7,3.8,0.8,4.9c18.5,11.5,34.8,0.2,39.7-7.5
	C8.2-294.9,8.9-297.3,6.8-298.9L6.8-298.9z M-24.9-290.4c5-4.6,14-9.5,24.5-4.7C-4.4-290.9-12.9-285.7-24.9-290.4L-24.9-290.4z"/>
<path class="st1" d="M-10.1-274.1c-17.9-11.6-34.3-0.4-39.7,7.4c-1,1.9-0.6,3.8,0.9,4.9c18.5,11.6,34.8,0.2,39.7-7.4
	C-8.7-270.2-8-272.5-10.1-274.1L-10.1-274.1z M-41.7-265.7c5-4.6,14-9.4,24.5-4.7C-21.2-266.2-29.7-261-41.7-265.7L-41.7-265.7z"/>
<path class="st1" d="M-59-268.4c1.9,1.1,3.8,0.7,4.9-0.8c11.5-18.5,0.2-34.9-7.5-39.7c-0.8-0.5-3.2-1.3-4.9,0.9
	C-78-290.1-66.8-273.8-59-268.4L-59-268.4z M-62.6-300.9c4.2,4,9.4,12.5,4.7,24.5C-62.6-281.3-67.4-290.3-62.6-300.9L-62.6-300.9z"
	/>
<path class="st1" d="M-42.1-293.1c1.9,1.1,3.8,0.7,4.9-0.8c11.6-18.5,0.2-34.8-7.4-39.7c-0.9-0.5-3.2-1.3-4.9,0.9
	C-61.1-314.8-49.9-298.5-42.1-293.1L-42.1-293.1z M-45.8-325.6c4.2,4,9.4,12.5,4.7,24.5C-45.6-306.1-50.5-315.1-45.8-325.6
	L-45.8-325.6z"/>
<path class="st1" d="M-23.5-305.3c19.3-5,20-21.4,18.8-27.5c-0.4-1.9-2.1-3.2-4-2.8c-6.5,0.7-21.5,9.1-18.8,27.5
	C-26.9-306.2-25.7-305.2-23.5-305.3L-23.5-305.3z M-11.1-327.8c-0.2,3.1-1.4,10.2-9.9,14.4C-20.6-322.1-13.9-326.6-11.1-327.8
	L-11.1-327.8z"/>
<path class="st1" d="M-53.1-267.4c-1.7-0.8-3.8-0.2-4.7,1.4c-0.4,0.9-4.4,7.5-10.6,4.2c-1.7-0.8-3.8-0.4-4.7,1.4
	c-0.9,1.7-0.4,3.8,1.4,4.7c10.6,5.7,17.9-3.2,20-7C-50.8-264.4-51.5-266.5-53.1-267.4L-53.1-267.4z"/>
<path class="st4" d="M128.7,87.7c-12.2-16-23.9-26.9-25-48.1c0-0.6-0.2-1-0.6-1.4c-0.2-1-1.2-1.7-2.2-1c-1.3,0-2.3,0.8-2.3,2.3
	C72.3,67.7,28,139.5,83.8,160.1c25.2,9.4,53.7-3.4,58.7-30.8C145.2,114.5,137.5,98.9,128.7,87.7L128.7,87.7z M86.6,144.2
	c-5.9-3.6-11.5-9.2-13.9-15.6c-2.1-7.2,1.4-18.2,3.4-23.8c1,4.6,9.9,17.1,15.6,19.9c6.7,3.4,20.5-2.2,19.7,12.8
	c-0.3,5.4-7.8,8.6-13.1,9.7C94.3,147.9,90,146.3,86.6,144.2L86.6,144.2z"/>
<path class="st3" d="M44.7-109.6c0,41-33.2,74.2-74.2,74.2c-41,0-74.2-33.2-74.2-74.2s33.2-74.2,74.2-74.2
	C11.5-183.9,44.7-150.6,44.7-109.6L44.7-109.6z"/>
<path class="st5" d="M17.9-114.3l-6.5-4.1l-26.6,10.6c0,0-27.2-14.9-42.1-23.2c-5.3-2.9-15.1-4.1-17.2,0.3
	c-2.8,5.9,4.3,13.7,14.8,18.2l12.8,26.2l8.6,5.8l2-19.6c16.1,12.4,32.7,12.9,48.1,7.3L2-97.3L17.9-114.3z"/>
<path class="st3" d="M-209.2-121.7c0,41-33.2,74.2-74.2,74.2s-74.2-33.2-74.2-74.2c0-41,33.2-74.2,74.2-74.2
	S-209.2-162.7-209.2-121.7L-209.2-121.7z"/>
<path class="st1" d="M-330-154.7c0.1,0,16-3.7,16.1-3.7c4.3-0.8,8.9,0.2,12.5,2.8c0.1,0,0.1,0.1,0.1,0.1l12.8,9.2
	c1.5-0.8,3.4-0.7,4.8,0.4l6.5,4.5c1.1-1.5,2.8-2.6,4.8-2.9l8.6-1.6c4.3-0.7,8.3,2.1,9.1,6.4l0.3,1.6c0.2,1.4,1.7,2.5,3.1,2.2
	c4.3-0.7,8.3,2.1,9.1,6.4l5.1,29c0.5,3.2-1.3,6.2-4.1,7.4l1.7,9.8c0.2,1.5-0.8,2.9-2.3,3.2l-12.4,2.2c-1.5,0.3-2.9-0.7-3.2-2.3
	l-1.7-9.6c-2.3,0.4,0.4-0.2-17.6,4.3c-7.3,1.8-14.3-3.7-14.3-11.2l-0.1-24.1c0-0.6,0.2-1.1,0.5-1.7l1-1.3l-6.5-4.6
	c-1.5-1.1-2.2-2.9-1.9-4.7l-12.8-9.2l-17.9,3.9c-1.7,0.4-3.4-0.9-3.4-2.7v-11C-332.2-153.3-331.3-154.4-330-154.7L-330-154.7z
	 M-252.3-83.9l6.9-1.2l-1.3-6.9l-6.8,1.2L-252.3-83.9z M-257.8-118.7l-0.7,23c2-0.4,13.1-2.3,15.1-2.6c0.6-0.1,1-0.7,0.8-1.2
	l-5.1-29c-0.2-1.3-1.4-2-2.6-1.9c-4.4,0.8-8.8-2.2-9.6-6.7l-0.2-1.5c-0.2-1.3-1.4-2-2.6-1.9l-8.6,1.6c-0.5,0.1-1.1,0.4-1.4,0.8
	l-9.3,13.3l14.2-2.5C-262.5-128.3-257.7-124.1-257.8-118.7L-257.8-118.7z M-285.4-96.8c0,3.9,3.7,6.7,7.4,5.8l13.9-3.5l0.7-24.3
	c0.1-1.9-1.6-3.4-3.5-3l-5.8,1l1.5,6.1c1.3,5,0.5,10.2-2.2,14.6c-0.8,1.3-2.5,1.8-3.8,1c-1.3-0.8-1.7-2.5-1-3.8
	c1.9-3.2,2.4-6.9,1.6-10.5l-1.6-6.5l-7.2,1.3L-285.4-96.8z M-286.4-128.4l6-8.5l-5.8-4l-5.9,8.5L-286.4-128.4z M-326.6-144.5
	l15.8-3.5c0.8-0.1,1.6,0,2.2,0.5l13.4,9.7l3-4.3l-12.4-8.9c-2.4-1.7-5.5-2.4-8.3-1.9l-13.7,3.1V-144.5z"/>
</svg>
