<?xml version="1.0" encoding="UTF-8" standalone="no"?>
<!-- Generator: Adobe Illustrator 23.0.1, SVG Export Plug-In . SVG Version: 6.00 Build 0)  -->

<svg
   xmlns:dc="http://purl.org/dc/elements/1.1/"
   xmlns:cc="http://creativecommons.org/ns#"
   xmlns:rdf="http://www.w3.org/1999/02/22-rdf-syntax-ns#"
   xmlns:svg="http://www.w3.org/2000/svg"
   xmlns="http://www.w3.org/2000/svg"
   xmlns:xlink="http://www.w3.org/1999/xlink"
   xmlns:sodipodi="http://sodipodi.sourceforge.net/DTD/sodipodi-0.dtd"
   xmlns:inkscape="http://www.inkscape.org/namespaces/inkscape"
   version="1.1"
   id="Calque_1"
   x="0px"
   y="0px"
   viewBox="0 0 194.2 200"
   style="enable-background:new 0 0 194.2 200;"
   xml:space="preserve"
   sodipodi:docname="logo-centurion.svg"
   inkscape:version="0.92.3 (2405546, 2018-03-11)"><metadata
   id="metadata19"><rdf:RDF><cc:Work
       rdf:about=""><dc:format>image/svg+xml</dc:format><dc:type
         rdf:resource="http://purl.org/dc/dcmitype/StillImage" /><dc:title></dc:title></cc:Work></rdf:RDF></metadata><defs
   id="defs17" /><sodipodi:namedview
   pagecolor="#ffffff"
   bordercolor="#666666"
   borderopacity="1"
   objecttolerance="10"
   gridtolerance="10"
   guidetolerance="10"
   inkscape:pageopacity="0"
   inkscape:pageshadow="2"
   inkscape:window-width="1285"
   inkscape:window-height="745"
   id="namedview15"
   showgrid="false"
   inkscape:zoom="1.18"
   inkscape:cx="-15.611866"
   inkscape:cy="100"
   inkscape:window-x="0"
   inkscape:window-y="0"
   inkscape:window-maximized="0"
   inkscape:current-layer="Calque_1" />
<style
   type="text/css"
   id="style2">
	.st0{clip-path:url(#SVGID_2_);fill:#2455A2;}
</style>
<g
   id="g12">
	<defs
   id="defs5">
		<rect
   id="SVGID_1_"
   x="2.8"
   y="2"
   width="190.7"
   height="196.5" />
	</defs>
	<clipPath
   id="SVGID_2_">
		<use
   xlink:href="#SVGID_1_"
   style="overflow:visible;"
   id="use7" />
	</clipPath>
	<path
   class="st0"
   d="M180.5,2.5c4.3-0.3,8.6-0.4,13-0.5c0,14.9,0,29.8,0,44.8c0,11.2,0.1,22.5,0,33.8c-16.7,0.1-33.5,3.7-48.5,11.1   c-8.9,4.4-17.2,10-24.6,16.6c-9.4,8.4-17.7,18.1-24.3,28.8c-3.7,6.2-7,12.7-9.4,19.4c-5,13.4-7.3,27.7-7.2,42c-25.5,0-51,0-76.6,0   c-0.1-25.3,4.3-50.6,13.7-74.1c7.8-19.6,19-37.7,32.7-53.7c9.3-11,19.7-21,31-29.8c14.2-11,29.9-20.1,46.7-26.6   C144,7.6,162.2,3.8,180.5,2.5"
   clip-path="url(#SVGID_2_)"
   id="path10" />
</g>
</svg>