<?xml version="1.0" encoding="utf-8"?>
<!-- Generator: Adobe Illustrator 23.0.1, SVG Export Plug-In . SVG Version: 6.00 Build 0)  -->
<svg version="1.1" id="Calque_1" xmlns="http://www.w3.org/2000/svg" xmlns:xlink="http://www.w3.org/1999/xlink" x="0px" y="0px"
	 viewBox="0 0 345.2 86.6" style="enable-background:new 0 0 345.2 86.6;" xml:space="preserve">
<style type="text/css">
	.st0{clip-path:url(#SVGID_2_);fill:#282727;}
	.st1{fill:#282727;}
	.st2{clip-path:url(#SVGID_4_);fill:#282727;}
	.st3{clip-path:url(#SVGID_4_);fill:#2455A2;}
</style>
<g>
	<g>
		<defs>
			<rect id="SVGID_1_" x="1" y="1" width="343.8" height="85"/>
		</defs>
		<clipPath id="SVGID_2_">
			<use xlink:href="#SVGID_1_"  style="overflow:visible;"/>
		</clipPath>
		<path class="st0" d="M124.4,79.8c-4.3,4.1-9.9,6-16,6c-15.6,0-22.2-10.4-22.3-20.9c-0.1-10.6,7.1-21.4,22.3-21.4
			c5.7,0,11.1,2.1,15.4,6.2l-5.3,4.9c-2.8-2.6-6.5-3.8-10.2-3.8c-10.2,0-14.5,7.3-14.5,14.1c0.1,6.7,4.1,13.7,14.5,13.7
			c3.7,0,7.8-1.4,10.6-4.1L124.4,79.8z"/>
		<path class="st0" d="M149.3,67.8c-0.5-3.6-3.4-5.4-7.4-5.4c-3.8,0-7,1.8-8,5.4H149.3z M133.7,73.5c0.5,3.4,3.5,5.9,8.5,5.9
			c2.6,0,6-1,7.7-2.6l4.5,4.3c-3,3-8,4.5-12.3,4.5c-9.9,0-15.8-5.9-15.8-14.8c0-8.4,5.9-14.5,15.2-14.5c9.6,0,15.6,5.7,14.5,17.1
			H133.7z"/>
		<path class="st0" d="M183.4,86V70.8c0-4.4-2.5-7.8-7.3-7.8c-4.6,0-7.7,3.1-7.7,7.5V86H161V56.9h7.1v3.4c3.1-2.9,6.1-3.8,9.9-3.8
			c7.1,0,12.8,5.1,12.8,14.3V86H183.4z"/>
		<path class="st0" d="M208,85.8c-6.5,0-12.5-3.4-12.5-10.6V62.7h-1.9v-6.2h1.9V44.2h7.4v12.3h2.8v6.2h-2.9v12.5
			c0,2.8,2.8,4.1,5.1,4.1V85.8z"/>
		<path class="st0" d="M220.1,56.4v15.2c0,4.4,2.5,7.8,7.3,7.8c4.6,0,7.7-3.7,7.7-8.1V56.4h7.4v29.1h-6.7l-0.5-3.9
			c-3.1,2.9-6,4.4-10.2,4.4c-7.2,0-12.5-5.2-12.5-14.3V56.4H220.1z"/>
		<path class="st0" d="M263.1,63.5c-3.8,0-8.3,2-8.3,7.2v15h-7.3V57.3h7.3v3.3c2.3-3.5,5.3-4,8.3-4V63.5z"/>
	</g>
	<path class="st1" d="M267.9,85.7h7.5V56.5h-7.5V85.7z M267.8,51.5h7.4v-6.8h-7.4V51.5z"/>
	<g>
		<defs>
			<rect id="SVGID_3_" x="1" y="1" width="343.8" height="85"/>
		</defs>
		<clipPath id="SVGID_4_">
			<use xlink:href="#SVGID_3_"  style="overflow:visible;"/>
		</clipPath>
		<path class="st2" d="M287.4,71.2c0,4.3,2.7,8.2,7.9,8.2c5.2,0,7.9-4,7.9-8.2c0-4.2-3.1-8.3-7.9-8.3
			C290.2,62.9,287.4,67,287.4,71.2 M310.5,71.2c0,8.1-5.7,14.6-15.2,14.6c-9.4,0-15.1-6.5-15.1-14.6c0-8,5.8-14.6,15-14.6
			C304.5,56.6,310.5,63.2,310.5,71.2"/>
		<path class="st2" d="M337.5,85.7V70.7c0-4.4-2.5-7.7-7.2-7.7c-4.5,0-7.6,3.1-7.6,7.5v15.3h-7.3V56.9h7.1v3.3c3-2.9,6-3.7,9.8-3.7
			c7,0,12.6,5.1,12.6,14.1v15.1H337.5z"/>
		<path class="st3" d="M80.7,1.2c1.9-0.1,3.9-0.2,5.8-0.2c0,6.5,0,12.9,0,19.4c0,4.9,0,9.7,0,14.6c-7.5,0-15,1.6-21.8,4.8
			c-4,1.9-7.7,4.3-11,7.2c-4.2,3.6-7.9,7.8-10.9,12.5c-1.7,2.7-3.1,5.5-4.2,8.4c-2.3,5.8-3.3,12-3.2,18.2C23.9,86,12.5,86,1,86
			C0.9,75.1,2.9,64.1,7.2,54c3.5-8.5,8.5-16.3,14.7-23.3c4.2-4.8,8.8-9.1,13.9-12.9C42.1,13,49.2,9.1,56.7,6.3
			C64.4,3.4,72.5,1.8,80.7,1.2"/>
	</g>
</g>
</svg>
